<svg xmlns="http://www.w3.org/2000/svg" width="24" height="26" fill="none"><g filter="url(#a)"><path fill="#1ADA5E" d="m5.021 2.2 2.724 13.65c.195.98 1.55 1.099 1.912.167l2.16-5.556a1 1 0 0 1 .798-.629l5.415-.734c.97-.131 1.194-1.434.323-1.88L6.458 1.115A1 1 0 0 0 5.021 2.2Z"/><path stroke="#EAEAEA" stroke-width="2" d="m5.021 2.2 2.724 13.65c.195.98 1.55 1.099 1.912.167l2.16-5.556a1 1 0 0 1 .798-.629l5.415-.734c.97-.131 1.194-1.434.323-1.88L6.458 1.115A1 1 0 0 0 5.021 2.2Z"/></g><defs><filter id="a" width="23.898" height="25.654" x="0" y="0" color-interpolation-filters="sRGB" filterUnits="userSpaceOnUse"><feFlood flood-opacity="0" result="BackgroundImageFix"/><feColorMatrix in="SourceAlpha" result="hardAlpha" values="0 0 0 0 0 0 0 0 0 0 0 0 0 0 0 0 0 0 127 0"/><feOffset dy="4"/><feGaussianBlur stdDeviation="2"/><feComposite in2="hardAlpha" operator="out"/><feColorMatrix values="0 0 0 0 0 0 0 0 0 0 0 0 0 0 0 0 0 0 0.2 0"/><feBlend in2="BackgroundImageFix" result="effect1_dropShadow_852_6368"/><feBlend in="SourceGraphic" in2="effect1_dropShadow_852_6368" result="shape"/></filter></defs></svg>